<svg width="33" height="32" viewBox="0 0 33 32" fill="none" xmlns="http://www.w3.org/2000/svg">
<path fill-rule="evenodd" clip-rule="evenodd" d="M16.2913 2.85437C9.05632 2.85437 3.18448 8.72621 3.18448 15.9612C3.18448 23.1961 9.05632 29.068 16.2913 29.068C23.5262 29.068 29.3981 23.1961 29.3981 15.9612C29.3981 8.72621 23.5262 2.85437 16.2913 2.85437ZM24.6272 22.2917C22.7529 20.0112 18.2049 19.2379 16.2913 19.2379C14.3777 19.2379 9.82962 20.0112 7.95535 22.2917C6.61846 20.5354 5.80584 18.3466 5.80584 15.9612C5.80584 10.1811 10.5112 5.47573 16.2913 5.47573C22.0714 5.47573 26.7767 10.1811 26.7767 15.9612C26.7767 18.3466 25.9641 20.5354 24.6272 22.2917ZM11.7039 12.6845C11.7039 10.1417 13.7486 8.09709 16.2913 8.09709C18.834 8.09709 20.8787 10.1417 20.8787 12.6845C20.8787 15.2272 18.834 17.2718 16.2913 17.2718C13.7486 17.2718 11.7039 15.2272 11.7039 12.6845Z" fill="#CAC4D0"/>
</svg>
